<mxfile host="app.diagrams.net" agent="Mozilla/5.0 (Windows NT 10.0; Win64; x64) AppleWebKit/537.36 (KHTML, like Gecko) Chrome/131.0.0.0 Safari/537.36" version="26.0.4">
  <diagram name="Page-1" id="WlGueLfjH2apKXG9QAk1">
    <mxGraphModel dx="491" dy="965" grid="1" gridSize="10" guides="1" tooltips="1" connect="1" arrows="1" fold="1" page="1" pageScale="1" pageWidth="850" pageHeight="1100" math="0" shadow="0">
      <root>
        <mxCell id="0" />
        <mxCell id="1" parent="0" />
        <mxCell id="f5legHbtaeZxNASVWJdh-15" value="" style="edgeStyle=orthogonalEdgeStyle;rounded=0;orthogonalLoop=1;jettySize=auto;html=1;" edge="1" parent="1" source="f5legHbtaeZxNASVWJdh-1" target="f5legHbtaeZxNASVWJdh-2">
          <mxGeometry relative="1" as="geometry" />
        </mxCell>
        <mxCell id="f5legHbtaeZxNASVWJdh-1" value="&lt;b&gt;&lt;font style=&quot;font-size: 19px;&quot;&gt;start&lt;/font&gt;&lt;/b&gt;" style="ellipse;whiteSpace=wrap;html=1;" vertex="1" parent="1">
          <mxGeometry x="330" y="80" width="120" height="80" as="geometry" />
        </mxCell>
        <mxCell id="f5legHbtaeZxNASVWJdh-16" value="" style="edgeStyle=orthogonalEdgeStyle;rounded=0;orthogonalLoop=1;jettySize=auto;html=1;" edge="1" parent="1" source="f5legHbtaeZxNASVWJdh-2" target="f5legHbtaeZxNASVWJdh-3">
          <mxGeometry relative="1" as="geometry" />
        </mxCell>
        <mxCell id="f5legHbtaeZxNASVWJdh-2" value="&lt;font&gt;Display Menu.&lt;/font&gt;" style="shape=parallelogram;perimeter=parallelogramPerimeter;whiteSpace=wrap;html=1;fixedSize=1;" vertex="1" parent="1">
          <mxGeometry x="330" y="220" width="120" height="60" as="geometry" />
        </mxCell>
        <mxCell id="f5legHbtaeZxNASVWJdh-4" style="edgeStyle=orthogonalEdgeStyle;rounded=0;orthogonalLoop=1;jettySize=auto;html=1;exitX=0;exitY=0.5;exitDx=0;exitDy=0;" edge="1" parent="1" source="f5legHbtaeZxNASVWJdh-3" target="f5legHbtaeZxNASVWJdh-13">
          <mxGeometry relative="1" as="geometry">
            <mxPoint x="250" y="620" as="targetPoint" />
            <mxPoint x="330" y="440" as="sourcePoint" />
          </mxGeometry>
        </mxCell>
        <mxCell id="f5legHbtaeZxNASVWJdh-5" style="edgeStyle=orthogonalEdgeStyle;rounded=0;orthogonalLoop=1;jettySize=auto;html=1;exitX=0;exitY=1;exitDx=0;exitDy=0;" edge="1" parent="1" source="f5legHbtaeZxNASVWJdh-3" target="f5legHbtaeZxNASVWJdh-12">
          <mxGeometry relative="1" as="geometry">
            <mxPoint x="290" y="610" as="targetPoint" />
          </mxGeometry>
        </mxCell>
        <mxCell id="f5legHbtaeZxNASVWJdh-6" style="edgeStyle=orthogonalEdgeStyle;rounded=0;orthogonalLoop=1;jettySize=auto;html=1;exitX=1;exitY=0.5;exitDx=0;exitDy=0;" edge="1" parent="1" source="f5legHbtaeZxNASVWJdh-3" target="f5legHbtaeZxNASVWJdh-18">
          <mxGeometry relative="1" as="geometry">
            <mxPoint x="790" y="610" as="targetPoint" />
          </mxGeometry>
        </mxCell>
        <mxCell id="f5legHbtaeZxNASVWJdh-7" style="edgeStyle=orthogonalEdgeStyle;rounded=0;orthogonalLoop=1;jettySize=auto;html=1;exitX=0.5;exitY=1;exitDx=0;exitDy=0;" edge="1" parent="1" source="f5legHbtaeZxNASVWJdh-3" target="f5legHbtaeZxNASVWJdh-10">
          <mxGeometry relative="1" as="geometry">
            <mxPoint x="390.61538461538464" y="620" as="targetPoint" />
          </mxGeometry>
        </mxCell>
        <mxCell id="f5legHbtaeZxNASVWJdh-8" style="edgeStyle=orthogonalEdgeStyle;rounded=0;orthogonalLoop=1;jettySize=auto;html=1;exitX=1;exitY=1;exitDx=0;exitDy=0;" edge="1" parent="1" source="f5legHbtaeZxNASVWJdh-3" target="f5legHbtaeZxNASVWJdh-11">
          <mxGeometry relative="1" as="geometry">
            <mxPoint x="430" y="620" as="targetPoint" />
          </mxGeometry>
        </mxCell>
        <mxCell id="f5legHbtaeZxNASVWJdh-3" value="User selects menu option" style="rhombus;whiteSpace=wrap;html=1;" vertex="1" parent="1">
          <mxGeometry x="310" y="380" width="160" height="110" as="geometry" />
        </mxCell>
        <mxCell id="f5legHbtaeZxNASVWJdh-10" value="UPDATE" style="rounded=0;whiteSpace=wrap;html=1;" vertex="1" parent="1">
          <mxGeometry x="329.99538461538464" y="610" width="120" height="60" as="geometry" />
        </mxCell>
        <mxCell id="f5legHbtaeZxNASVWJdh-11" value="DELETE" style="rounded=0;whiteSpace=wrap;html=1;" vertex="1" parent="1">
          <mxGeometry x="530" y="610" width="120" height="60" as="geometry" />
        </mxCell>
        <mxCell id="f5legHbtaeZxNASVWJdh-12" value="VIEW" style="rounded=0;whiteSpace=wrap;html=1;" vertex="1" parent="1">
          <mxGeometry x="180" y="610" width="120" height="60" as="geometry" />
        </mxCell>
        <mxCell id="f5legHbtaeZxNASVWJdh-13" value="ADD" style="rounded=0;whiteSpace=wrap;html=1;" vertex="1" parent="1">
          <mxGeometry x="30" y="610" width="120" height="60" as="geometry" />
        </mxCell>
        <mxCell id="f5legHbtaeZxNASVWJdh-18" value="EXIT" style="ellipse;whiteSpace=wrap;html=1;" vertex="1" parent="1">
          <mxGeometry x="730" y="570" width="120" height="80" as="geometry" />
        </mxCell>
        <mxCell id="f5legHbtaeZxNASVWJdh-19" value="" style="shape=cylinder3;whiteSpace=wrap;html=1;boundedLbl=1;backgroundOutline=1;size=15;" vertex="1" parent="1">
          <mxGeometry x="270" y="870" width="170" height="160" as="geometry" />
        </mxCell>
        <mxCell id="f5legHbtaeZxNASVWJdh-20" value="" style="endArrow=classic;startArrow=classic;html=1;rounded=0;entryX=0.5;entryY=0;entryDx=0;entryDy=0;entryPerimeter=0;" edge="1" parent="1" source="f5legHbtaeZxNASVWJdh-10" target="f5legHbtaeZxNASVWJdh-19">
          <mxGeometry width="50" height="50" relative="1" as="geometry">
            <mxPoint x="460" y="560" as="sourcePoint" />
            <mxPoint x="510" y="510" as="targetPoint" />
          </mxGeometry>
        </mxCell>
        <mxCell id="f5legHbtaeZxNASVWJdh-21" value="" style="endArrow=classic;startArrow=classic;html=1;rounded=0;exitX=0.663;exitY=0.035;exitDx=0;exitDy=0;exitPerimeter=0;" edge="1" parent="1" source="f5legHbtaeZxNASVWJdh-19" target="f5legHbtaeZxNASVWJdh-11">
          <mxGeometry width="50" height="50" relative="1" as="geometry">
            <mxPoint x="460" y="560" as="sourcePoint" />
            <mxPoint x="510" y="510" as="targetPoint" />
          </mxGeometry>
        </mxCell>
        <mxCell id="f5legHbtaeZxNASVWJdh-22" value="" style="endArrow=classic;startArrow=classic;html=1;rounded=0;exitX=0.5;exitY=1;exitDx=0;exitDy=0;" edge="1" parent="1" source="f5legHbtaeZxNASVWJdh-12" target="f5legHbtaeZxNASVWJdh-19">
          <mxGeometry width="50" height="50" relative="1" as="geometry">
            <mxPoint x="280" y="560" as="sourcePoint" />
            <mxPoint x="330" y="510" as="targetPoint" />
          </mxGeometry>
        </mxCell>
        <mxCell id="f5legHbtaeZxNASVWJdh-23" value="" style="endArrow=classic;startArrow=classic;html=1;rounded=0;exitX=0;exitY=0;exitDx=0;exitDy=15;exitPerimeter=0;" edge="1" parent="1" source="f5legHbtaeZxNASVWJdh-19" target="f5legHbtaeZxNASVWJdh-13">
          <mxGeometry width="50" height="50" relative="1" as="geometry">
            <mxPoint x="280" y="560" as="sourcePoint" />
            <mxPoint x="330" y="510" as="targetPoint" />
          </mxGeometry>
        </mxCell>
      </root>
    </mxGraphModel>
  </diagram>
</mxfile>
